<svg width="48" height="48" viewBox="0 0 48 48" fill="none" xmlns="http://www.w3.org/2000/svg">
<path d="M13.231 33.0341C14.5928 32.0486 15.4839 30.4506 15.4839 28.6452C15.4839 25.6576 13.0529 23.2259 10.0645 23.2259C7.07613 23.2259 4.64516 25.6576 4.64516 28.6452C4.64516 30.4506 5.53626 32.0486 6.89806 33.0341C2.89703 34.3649 0 38.1383 0 42.5807V48H20.129V42.5807C20.129 38.1383 17.232 34.3649 13.231 33.0341ZM6.19355 28.6452C6.19355 26.5108 7.93006 24.7743 10.0645 24.7743C12.199 24.7743 13.9355 26.5108 13.9355 28.6452C13.9355 30.7797 12.199 32.5162 10.0645 32.5162C7.93006 32.5162 6.19355 30.7797 6.19355 28.6452ZM7.35484 42.5807H6.19355V39.4839H10.8387V46.4516H9.80284C9.97006 46.0994 10.0645 45.7053 10.0645 45.2903C10.0645 43.7961 8.84903 42.5807 7.35484 42.5807ZM18.5806 46.4516H15.4839V39.4839H13.9355V46.4516H12.3871V37.9355H4.64516V42.5807H3.09677V44.129H7.35484C7.9951 44.129 8.51613 44.6501 8.51613 45.2903C8.51613 45.9306 7.9951 46.4516 7.35484 46.4516H1.54839V42.5807C1.54839 37.8852 5.36903 34.0645 10.0645 34.0645C14.76 34.0645 18.5806 37.8852 18.5806 42.5807V46.4516ZM41.1019 33.0341C42.4637 32.0486 43.3548 30.4506 43.3548 28.6452C43.3548 25.6576 40.9239 23.2259 37.9355 23.2259C34.9471 23.2259 32.5161 25.6576 32.5161 28.6452C32.5161 30.4506 33.4072 32.0486 34.769 33.0341C30.768 34.3649 27.871 38.1383 27.871 42.5807V48H48V42.5807C48 38.1383 45.103 34.3649 41.1019 33.0341ZM34.0645 28.6452C34.0645 26.5108 35.801 24.7743 37.9355 24.7743C40.0699 24.7743 41.8064 26.5108 41.8064 28.6452C41.8064 30.7797 40.0699 32.5162 37.9355 32.5162C35.801 32.5162 34.0645 30.7797 34.0645 28.6452ZM35.2258 42.5807H34.0645V39.4839H38.7097V46.4516H37.6738C37.841 46.0994 37.9355 45.7053 37.9355 45.2903C37.9355 43.7961 36.72 42.5807 35.2258 42.5807ZM46.4516 46.4516H43.3548V39.4839H41.8064V46.4516H40.2581V37.9355H32.5161V42.5807H30.9677V44.129H35.2258C35.8661 44.129 36.3871 44.6501 36.3871 45.2903C36.3871 45.9306 35.8661 46.4516 35.2258 46.4516H29.4194V42.5807C29.4194 37.8852 33.24 34.0645 37.9355 34.0645C42.631 34.0645 46.4516 37.8852 46.4516 42.5807V46.4516ZM24 20.1291C26.1345 20.1291 27.871 18.3926 27.871 16.2581V15.6605C27.871 14.9474 28.2039 14.277 28.7845 13.8202C30.6643 12.3415 31.7419 10.1265 31.7419 7.74203C31.7419 5.62927 30.9066 3.65662 29.3907 2.18489C27.8748 0.714697 25.8867 -0.0563982 23.7615 0.00321453C19.6095 0.128634 16.2434 3.6125 16.2581 7.76991C16.2666 10.1978 17.3853 12.4336 19.327 13.9061C19.8294 14.2863 20.129 14.9203 20.129 15.6024V16.2581C20.129 18.3926 21.8655 20.1291 24 20.1291ZM26.3226 16.2581C26.3226 17.5387 25.2805 18.5807 24 18.5807C22.7195 18.5807 21.6774 17.5387 21.6774 16.2581V15.6024C21.6774 15.5621 21.672 15.5234 21.6705 15.484H26.3326C26.3303 15.5428 26.3226 15.6009 26.3226 15.6605V16.2581ZM24 9.29042C23.1461 9.29042 22.4516 8.59597 22.4516 7.74203C22.4516 6.8881 23.1461 6.19365 24 6.19365C24.8539 6.19365 25.5484 6.8881 25.5484 7.74203C25.5484 8.59597 24.8539 9.29042 24 9.29042ZM17.8065 7.76371C17.7948 4.43778 20.4867 1.65069 23.808 1.5516C23.8723 1.54928 23.9365 1.5485 24.0008 1.5485C25.6212 1.5485 27.1455 2.16476 28.3123 3.29663C29.5254 4.4734 30.1935 6.05197 30.1935 7.74203C30.1935 9.64887 29.3311 11.4202 27.8276 12.6024C27.3592 12.9709 26.9907 13.4269 26.7345 13.9356H24.7742V10.7289C26.1058 10.3828 27.0968 9.18126 27.0968 7.74203C27.0968 6.03417 25.7079 4.64527 24 4.64527C22.2921 4.64527 20.9032 6.03417 20.9032 7.74203C20.9032 9.18126 21.8942 10.3828 23.2258 10.7289V13.9356H21.2926C21.0495 13.4393 20.6996 13.0034 20.2614 12.6721C18.7084 11.4945 17.8134 9.70538 17.8065 7.76371ZM38.7097 18.5807C38.7097 19.8612 39.7517 20.9033 41.0323 20.9033C42.3128 20.9033 43.3548 19.8612 43.3548 18.5807C43.3548 17.3521 42.3933 16.3541 41.1848 16.2736C40.2921 12.9423 38.4766 9.96706 35.88 7.63907L34.8465 8.79261C37.2217 10.9209 38.88 13.6421 39.6937 16.6886C39.1006 17.1098 38.7097 17.7988 38.7097 18.5807ZM41.8064 18.5807C41.8064 19.0081 41.4588 19.3549 41.0323 19.3549C40.6057 19.3549 40.2581 19.0081 40.2581 18.5807C40.2581 18.1534 40.6057 17.8065 41.0323 17.8065C41.4588 17.8065 41.8064 18.1534 41.8064 18.5807ZM33.6797 5.9552C34.1079 6.23313 34.5267 6.5312 34.9262 6.84242L33.9747 8.0641C33.6101 7.78074 33.2276 7.50823 32.8366 7.25429L33.6797 5.9552ZM6.81523 16.2736C5.60671 16.3541 4.64516 17.3521 4.64516 18.5807C4.64516 19.8612 5.68723 20.9033 6.96774 20.9033C8.24826 20.9033 9.29032 19.8612 9.29032 18.5807C9.29032 17.7988 8.89935 17.1098 8.30555 16.6886C9.11923 13.6421 10.7775 10.9216 13.1528 8.79261L12.1192 7.63907C9.52258 9.96706 7.70787 12.9423 6.81523 16.2736ZM6.96774 19.3549C6.54116 19.3549 6.19355 19.0081 6.19355 18.5807C6.19355 18.1534 6.54116 17.8065 6.96774 17.8065C7.39432 17.8065 7.74194 18.1534 7.74194 18.5807C7.74194 19.0081 7.39432 19.3549 6.96774 19.3549ZM14.0245 8.0641L13.073 6.84242C13.4725 6.53197 13.8914 6.23391 14.3195 5.9552L15.1626 7.25429C14.7724 7.50823 14.3892 7.78074 14.0245 8.0641ZM29.4194 27.871C30.6999 27.871 31.7419 26.829 31.7419 25.5484C31.7419 24.2679 30.6999 23.2259 29.4194 23.2259C28.4114 23.2259 27.5597 23.8754 27.2392 24.7743H20.76C20.4395 23.8754 19.5879 23.2259 18.5799 23.2259C17.2994 23.2259 16.2573 24.2679 16.2573 25.5484C16.2573 26.829 17.2994 27.871 18.5799 27.871C19.5879 27.871 20.4395 27.2215 20.76 26.3226H27.2392C27.5597 27.2215 28.4114 27.871 29.4194 27.871ZM29.4194 24.7743C29.8459 24.7743 30.1935 25.1211 30.1935 25.5484C30.1935 25.9758 29.8459 26.3226 29.4194 26.3226C28.9928 26.3226 28.6452 25.9758 28.6452 25.5484C28.6452 25.1211 28.9928 24.7743 29.4194 24.7743ZM18.5806 26.3226C18.1541 26.3226 17.8065 25.9758 17.8065 25.5484C17.8065 25.1211 18.1541 24.7743 18.5806 24.7743C19.0072 24.7743 19.3548 25.1211 19.3548 25.5484C19.3548 25.9758 19.0072 26.3226 18.5806 26.3226Z" fill="#7A46EB"/>
</svg>
