<svg width="48" height="48" viewBox="0 0 48 48" fill="none" xmlns="http://www.w3.org/2000/svg">
<path d="M42.4729 33.7972C42.3442 33.7438 42.2025 33.7299 42.0659 33.7571C41.9292 33.7842 41.8037 33.8513 41.7051 33.9498L34.0061 41.6488C33.9076 41.7474 33.8405 41.8729 33.8133 42.0096C33.7862 42.1463 33.8001 42.2879 33.8534 42.4167C33.9068 42.5454 33.9971 42.6555 34.1129 42.7329C34.2288 42.8103 34.365 42.8517 34.5043 42.8517H42.2033C42.3902 42.8517 42.5694 42.7775 42.7016 42.6453C42.8337 42.5132 42.908 42.3339 42.908 42.1471V34.4481C42.908 34.3087 42.8666 34.1725 42.7892 34.0566C42.7117 33.9407 42.6017 33.8505 42.4729 33.7972ZM36.2045 41.4424L41.4987 36.1482V41.4424H36.2045Z" fill="#805AD5"/>
<path d="M47.5649 22.5041C47.4362 22.4508 47.2946 22.4368 47.1579 22.464C47.0212 22.4912 46.8957 22.5583 46.7972 22.6568L44.6875 24.7664V10.4203C44.6875 10.2334 44.6133 10.0542 44.4811 9.92202C44.349 9.78988 44.1698 9.71564 43.9829 9.71564H38.5693L40.5313 7.75356L42.4243 5.86059C42.8269 5.45764 43.0531 4.91132 43.0531 4.34169C43.0531 3.77206 42.8269 3.22573 42.4243 2.82279L40.2396 0.628677C39.8366 0.226047 39.2903 -0.00012207 38.7207 -0.00012207C38.151 -0.00012207 37.6047 0.226047 37.2018 0.628677L35.3071 2.52336L33.014 4.81216L28.1105 9.71564H6.24537V2.74601C6.24537 2.55986 6.17172 2.38128 6.04049 2.24926C5.90927 2.11723 5.73113 2.0425 5.54499 2.04137C4.07496 2.04137 2.66509 2.6251 1.6253 3.66425C0.585507 4.7034 0.000904635 6.11292 0 7.58295L0 37.5063C0.000241009 37.5571 0.00596127 37.6077 0.0170615 37.6573C0.119204 38.9984 0.724084 40.2516 1.71064 41.1658C2.69719 42.0801 3.99264 42.5881 5.33769 42.5881H26.8659L22.8112 46.6461C22.7127 46.7447 22.6456 46.8702 22.6184 47.0069C22.5913 47.1436 22.6052 47.2852 22.6585 47.414C22.7119 47.5427 22.8022 47.6527 22.918 47.7302C23.0339 47.8076 23.1701 47.8489 23.3094 47.849H47.2954C47.4822 47.849 47.6615 47.7747 47.7936 47.6426C47.9258 47.5104 48 47.3312 48 47.1443V23.155C48 23.0156 47.9586 22.8794 47.8812 22.7636C47.8037 22.6477 47.6937 22.5574 47.5649 22.5041ZM38.1982 1.62507C38.3368 1.48666 38.5247 1.40892 38.7207 1.40892C38.9166 1.40892 39.1045 1.48666 39.2432 1.62507L41.433 3.81491C41.5714 3.95358 41.6492 4.1415 41.6492 4.33742C41.6492 4.53335 41.5714 4.72127 41.433 4.85993L40.0365 6.25642L36.8017 3.02155L38.1982 1.62507ZM35.8096 4.01368L39.0444 7.24854L37.752 8.54095L34.5129 5.31036L35.8096 4.01368ZM46.5916 31.0715H45.2915C45.1046 31.0715 44.9254 31.1458 44.7932 31.2779C44.6611 31.4101 44.5868 31.5893 44.5868 31.7762C44.5868 31.9631 44.6611 32.1423 44.7932 32.2744C44.9254 32.4066 45.1046 32.4808 45.2915 32.4808H46.5916V34.6041H45.2915C45.1046 34.6041 44.9254 34.6784 44.7932 34.8105C44.6611 34.9426 44.5868 35.1219 44.5868 35.3088C44.5868 35.4956 44.6611 35.6749 44.7932 35.807C44.9254 35.9392 45.1046 36.0134 45.2915 36.0134H46.5916V38.1367H45.2915C45.1046 38.1367 44.9254 38.2109 44.7932 38.3431C44.6611 38.4752 44.5868 38.6545 44.5868 38.8413C44.5868 39.0282 44.6611 39.2075 44.7932 39.3396C44.9254 39.4717 45.1046 39.546 45.2915 39.546H46.5916V41.6693H45.2915C45.1046 41.6693 44.9254 41.7435 44.7932 41.8757C44.6611 42.0078 44.5868 42.187 44.5868 42.3739C44.5868 42.5608 44.6611 42.74 44.7932 42.8722C44.9254 43.0043 45.1046 43.0786 45.2915 43.0786H46.5916V46.4388H25.0088L32.1251 39.3225C32.2539 39.1897 32.3253 39.0115 32.3238 38.8265C32.3224 38.6416 32.2483 38.4646 32.1175 38.3338C31.9866 38.2029 31.8096 38.1288 31.6247 38.1274C31.4397 38.126 31.2615 38.1973 31.1287 38.3261L28.2735 41.1813H5.33684C4.31561 41.1866 3.33294 40.7916 2.59942 40.0811C1.8659 39.3705 1.43989 38.4009 1.41269 37.38C1.41667 37.2464 1.42691 37.1139 1.4434 36.9825C1.45137 36.9199 1.46075 36.8579 1.47156 36.7965V36.7752C1.48122 36.7183 1.49231 36.6634 1.50483 36.6105L1.51506 36.5653C1.52587 36.5193 1.53753 36.4735 1.55004 36.428C1.55686 36.4033 1.56369 36.3785 1.57137 36.3538C1.57904 36.329 1.59269 36.2821 1.60378 36.2471C1.61487 36.2122 1.62682 36.1772 1.63961 36.1422C1.65241 36.1072 1.65667 36.0936 1.66606 36.0688C1.68312 36.0228 1.70103 35.9767 1.7198 35.9315L1.73601 35.8923C1.75989 35.836 1.78549 35.7805 1.81193 35.7216V35.7148C2.08796 35.1436 2.49136 34.6433 2.99109 34.2524C3.49082 33.8615 4.07356 33.5905 4.69447 33.4601H4.70556C4.76357 33.4482 4.82244 33.438 4.88215 33.4286L4.91798 33.4235C4.97172 33.4149 5.02547 33.409 5.08006 33.403L5.12528 33.3979C5.17732 33.3927 5.23021 33.3893 5.2831 33.3859H5.33343C5.40224 33.3825 5.47163 33.3808 5.54158 33.3808C5.72846 33.3808 5.90769 33.3066 6.03983 33.1744C6.17198 33.0423 6.24622 32.863 6.24622 32.6762V27.5611C6.24622 27.3742 6.17198 27.195 6.03983 27.0629C5.90769 26.9307 5.72846 26.8565 5.54158 26.8565C5.3547 26.8565 5.17547 26.9307 5.04332 27.0629C4.91118 27.195 4.83694 27.3742 4.83694 27.5611V32.0091C3.64238 32.1609 2.53059 32.7003 1.67203 33.5446C1.58075 33.6299 1.49374 33.7272 1.40928 33.8218V7.58295C1.41041 6.60953 1.75457 5.66765 2.38129 4.92283C3.00801 4.178 3.87719 3.67788 4.83609 3.51037V24.7434C4.83609 24.9303 4.91032 25.1095 5.04247 25.2417C5.17462 25.3738 5.35384 25.4481 5.54073 25.4481C5.72761 25.4481 5.90684 25.3738 6.03898 25.2417C6.17113 25.1095 6.24537 24.9303 6.24537 24.7434V11.1249H26.7055L22.8112 15.0201C22.6825 15.1529 22.6111 15.331 22.6125 15.516C22.614 15.701 22.6881 15.878 22.8189 16.0088C22.9497 16.1396 23.1267 16.2137 23.3117 16.2152C23.4967 16.2166 23.6748 16.1452 23.8076 16.0165L28.9048 10.9193L33.5156 6.30845L36.7505 9.54332L36.3709 9.92294L22.1646 24.1249L18.9297 20.8935L21.7295 18.0937C21.795 18.028 21.8468 17.9502 21.8821 17.8645C21.9175 17.7788 21.9356 17.687 21.9354 17.5943C21.9352 17.5016 21.9168 17.4099 21.8812 17.3243C21.8456 17.2387 21.7935 17.161 21.7278 17.0956C21.6622 17.0302 21.5843 16.9783 21.4986 16.943C21.4129 16.9077 21.3211 16.8896 21.2284 16.8897C21.1357 16.8899 21.044 16.9083 20.9584 16.9439C20.8729 16.9795 20.7952 17.0317 20.7297 17.0973L17.4309 20.3953C17.4134 20.4129 17.3969 20.4314 17.3814 20.4507L17.3669 20.4704C17.3567 20.4832 17.3473 20.4968 17.3379 20.5105L17.3234 20.5352C17.3157 20.548 17.3081 20.5616 17.3012 20.5753L17.2884 20.6026C17.2825 20.6162 17.2765 20.6307 17.2714 20.6444L17.2654 20.6589L15.8971 24.5515L14.9587 27.2028C14.9465 27.2379 14.9371 27.2738 14.9305 27.3103H12.5897C12.4028 27.3103 12.2236 27.3846 12.0914 27.5167C11.9593 27.6489 11.885 27.8281 11.885 28.015C11.885 28.2018 11.9593 28.3811 12.0914 28.5132C12.2236 28.6454 12.4028 28.7196 12.5897 28.7196H32.1004C32.2873 28.7196 32.4665 28.6454 32.5986 28.5132C32.7308 28.3811 32.805 28.2018 32.805 28.015C32.805 27.8281 32.7308 27.6489 32.5986 27.5167C32.4665 27.3846 32.2873 27.3103 32.1004 27.3103H18.1023L22.3992 25.7936L22.4094 25.7893L22.4589 25.7688L22.4785 25.7603C22.4956 25.7518 22.5118 25.7424 22.528 25.733L22.5442 25.7236C22.5613 25.7125 22.5775 25.7006 22.5937 25.6886L22.6056 25.6792C22.6256 25.6632 22.6447 25.6461 22.6628 25.6281L37.1608 11.1249H43.2782V26.1723L33.2008 36.254C33.0687 36.3861 32.9945 36.5653 32.9945 36.7522C32.9945 36.939 33.0687 37.1182 33.2008 37.2504C33.2179 37.2675 33.2359 37.2837 33.2546 37.299C33.3898 37.4091 33.5611 37.4651 33.7353 37.4561C33.9094 37.4471 34.0741 37.3738 34.1972 37.2504L46.5916 24.856V31.0715ZM20.8765 24.8321L18.8581 25.5445L17.5136 24.2L18.226 22.1816L20.8765 24.8321Z" fill="#805AD5"/>
</svg>
