<svg width="48" height="46" viewBox="0 0 48 46" fill="none" xmlns="http://www.w3.org/2000/svg">
<path d="M47.434 38.3829L42.3678 36.1534V15.7797C42.3672 15.5968 42.3123 15.418 42.21 15.2657C42.1076 15.1134 41.9623 14.9943 41.7921 14.9232L24.9411 7.74268V0.928125C24.9411 0.681971 24.8424 0.445899 24.6667 0.271841C24.4909 0.0977843 24.2526 0 24.0041 0C23.7555 0 23.5172 0.0977843 23.3415 0.271841C23.1657 0.445899 23.067 0.681971 23.067 0.928125V7.74268L6.21034 14.9224C6.04022 14.9936 5.89496 15.1127 5.79261 15.265C5.69026 15.4173 5.63532 15.596 5.63462 15.7789V36.1534L0.568452 38.3829C0.454316 38.4312 0.35102 38.5016 0.264567 38.5898C0.178113 38.6781 0.110225 38.7825 0.0648463 38.8969C0.0194672 39.0114 -0.00249839 39.1336 0.000225622 39.2565C0.00294964 39.3795 0.0303089 39.5006 0.0807141 39.613C0.131119 39.7254 0.203566 39.8267 0.293845 39.9111C0.384124 39.9955 0.490436 40.0613 0.606605 40.1047C0.722775 40.148 0.846486 40.1681 0.970552 40.1637C1.09462 40.1593 1.21657 40.1305 1.32931 40.0791L6.57737 37.7692L23.6297 45.0342C23.7469 45.0832 23.8728 45.1084 24 45.1084C24.1272 45.1084 24.2531 45.0832 24.3703 45.0342L41.4226 37.7692L46.6707 40.0791C46.7834 40.1305 46.9054 40.1593 47.0294 40.1637C47.1535 40.1681 47.2772 40.148 47.3934 40.1047C47.5096 40.0613 47.6159 39.9955 47.7062 39.9111C47.7964 39.8267 47.8689 39.7254 47.9193 39.613C47.9697 39.5006 47.997 39.3795 47.9998 39.2565C48.0025 39.1336 47.9805 39.0114 47.9352 38.8969C47.8898 38.7825 47.8219 38.6781 47.7354 38.5898C47.649 38.5016 47.5457 38.4312 47.4315 38.3829H47.434ZM23.0654 9.76381V12.064C23.0654 12.3102 23.1641 12.5462 23.3398 12.7203C23.5156 12.8944 23.7539 12.9921 24.0024 12.9921C24.251 12.9921 24.4893 12.8944 24.665 12.7203C24.8408 12.5462 24.9395 12.3102 24.9395 12.064V9.76381L39.0613 15.7797L24.0024 22.1978L8.9444 15.7797L23.0654 9.76381ZM12.4361 34.1749C12.335 33.9502 12.148 33.7743 11.9161 33.686C11.6843 33.5976 11.4265 33.604 11.1994 33.7036L7.50795 35.3283V17.1888L23.0646 23.816V42.7726L8.9103 36.7406L11.9602 35.3982C12.1868 35.2981 12.364 35.1132 12.4532 34.8839C12.5424 34.6546 12.5362 34.3997 12.4361 34.1749ZM24.9411 42.7726V23.816L40.4977 17.1888V35.3283L36.8063 33.7036C36.6936 33.6522 36.5716 33.6234 36.4476 33.619C36.3235 33.6146 36.1998 33.6347 36.0836 33.678C35.9674 33.7214 35.8611 33.7872 35.7708 33.8716C35.6806 33.956 35.6081 34.0573 35.5577 34.1697C35.5073 34.2821 35.4799 34.4032 35.4772 34.5262C35.4745 34.6491 35.4965 34.7713 35.5418 34.8858C35.5872 35.0003 35.6551 35.1046 35.7416 35.1929C35.828 35.2811 35.9313 35.3515 36.0455 35.3998L39.0954 36.7422L24.9411 42.7726Z" fill="#805AD5"/>
</svg>
