<svg width="31" height="25" viewBox="0 0 31 25" fill="none" xmlns="http://www.w3.org/2000/svg">
<path d="M12.3972 16.0557H12.3503C12.3503 15.3057 12.444 15.6807 8.36591 7.57129C7.99091 6.72754 7.19403 6.30566 6.35028 6.30566C5.55341 6.30566 4.75653 6.72754 4.38153 7.57129C0.256531 15.7275 0.397156 15.3525 0.397156 16.0557C0.397156 18.165 3.06903 19.8057 6.39716 19.8057C9.67841 19.8057 12.3972 18.165 12.3972 16.0557ZM4.28778 12.7744C4.80341 11.6963 5.50653 10.3369 6.35028 8.60254V8.55566H6.39716C7.28778 10.4307 8.03778 11.8369 8.55341 12.915C9.06903 13.9932 9.49091 14.79 9.77216 15.3057H2.97528C3.30341 14.7432 3.72528 13.8994 4.28778 12.7744ZM25.1472 22.0557H16.5222V7.61816C17.7878 7.24316 18.7722 6.16504 19.0534 4.80566H25.1472C25.5222 4.80566 25.8972 4.47754 25.8972 4.05566V3.30566C25.8972 2.93066 25.5222 2.55566 25.1472 2.55566H18.819C18.2097 1.24316 16.8972 0.305664 15.3972 0.305664C13.8503 0.305664 12.5378 1.24316 11.9284 2.55566H5.64716C5.22528 2.55566 4.89716 2.93066 4.89716 3.30566V4.05566C4.89716 4.47754 5.22528 4.80566 5.64716 4.80566H11.694C11.9753 6.16504 12.9597 7.24316 14.2722 7.61816V22.0557H5.64716C5.22528 22.0557 4.89716 22.4307 4.89716 22.8057V23.5557C4.89716 23.9775 5.22528 24.3057 5.64716 24.3057H25.1472C25.5222 24.3057 25.8972 23.9775 25.8972 23.5557V22.8057C25.8972 22.4307 25.5222 22.0557 25.1472 22.0557ZM15.3972 5.55566C14.5534 5.55566 13.8972 4.89941 13.8972 4.05566C13.8972 3.25879 14.5534 2.55566 15.3972 2.55566C16.194 2.55566 16.8972 3.25879 16.8972 4.05566C16.8972 4.89941 16.194 5.55566 15.3972 5.55566ZM30.3503 16.0557C30.3503 15.3057 30.444 15.6807 26.3659 7.57129C25.9909 6.72754 25.194 6.30566 24.3503 6.30566C23.5534 6.30566 22.7565 6.72754 22.3815 7.57129C18.2565 15.7275 18.3972 15.3525 18.3972 16.0557C18.3972 18.165 21.069 19.8057 24.3972 19.8057C27.6784 19.8057 30.3972 18.165 30.3972 16.0557H30.3503ZM20.9753 15.3057C21.3034 14.7432 21.7253 13.8994 22.2878 12.7744C22.8034 11.6963 23.5065 10.3369 24.3503 8.60254V8.55566H24.3972C25.2878 10.4307 26.0378 11.8369 26.5534 12.915C27.069 13.9932 27.4909 14.79 27.7722 15.3057H20.9753Z" fill="#A999F8"/>
</svg>
