<svg width="30" height="24" viewBox="0 0 30 24" fill="none" xmlns="http://www.w3.org/2000/svg">
<path d="M12 15.75H11.9531C11.9531 15 12.0469 15.375 7.96875 7.26562C7.59375 6.42188 6.79688 6 5.95312 6C5.15625 6 4.35938 6.42188 3.98438 7.26562C-0.140625 15.4219 0 15.0469 0 15.75C0 17.8594 2.67188 19.5 6 19.5C9.28125 19.5 12 17.8594 12 15.75ZM3.89062 12.4688C4.40625 11.3906 5.10938 10.0312 5.95312 8.29688V8.25H6C6.89062 10.125 7.64062 11.5312 8.15625 12.6094C8.67188 13.6875 9.09375 14.4844 9.375 15H2.57812C2.90625 14.4375 3.32812 13.5938 3.89062 12.4688ZM24.75 21.75H16.125V7.3125C17.3906 6.9375 18.375 5.85938 18.6562 4.5H24.75C25.125 4.5 25.5 4.17188 25.5 3.75V3C25.5 2.625 25.125 2.25 24.75 2.25H18.4219C17.8125 0.9375 16.5 0 15 0C13.4531 0 12.1406 0.9375 11.5312 2.25H5.25C4.82812 2.25 4.5 2.625 4.5 3V3.75C4.5 4.17188 4.82812 4.5 5.25 4.5H11.2969C11.5781 5.85938 12.5625 6.9375 13.875 7.3125V21.75H5.25C4.82812 21.75 4.5 22.125 4.5 22.5V23.25C4.5 23.6719 4.82812 24 5.25 24H24.75C25.125 24 25.5 23.6719 25.5 23.25V22.5C25.5 22.125 25.125 21.75 24.75 21.75ZM15 5.25C14.1562 5.25 13.5 4.59375 13.5 3.75C13.5 2.95312 14.1562 2.25 15 2.25C15.7969 2.25 16.5 2.95312 16.5 3.75C16.5 4.59375 15.7969 5.25 15 5.25ZM29.9531 15.75C29.9531 15 30.0469 15.375 25.9688 7.26562C25.5938 6.42188 24.7969 6 23.9531 6C23.1562 6 22.3594 6.42188 21.9844 7.26562C17.8594 15.4219 18 15.0469 18 15.75C18 17.8594 20.6719 19.5 24 19.5C27.2812 19.5 30 17.8594 30 15.75H29.9531ZM20.5781 15C20.9062 14.4375 21.3281 13.5938 21.8906 12.4688C22.4062 11.3906 23.1094 10.0312 23.9531 8.29688V8.25H24C24.8906 10.125 25.6406 11.5312 26.1562 12.6094C26.6719 13.6875 27.0938 14.4844 27.375 15H20.5781Z" fill="#805AD5"/>
</svg>
