<svg width="28" height="22" viewBox="0 0 28 22" fill="none" xmlns="http://www.w3.org/2000/svg">
<path d="M10.25 0.5H6.125C4.67188 0.5 3.5 1.71875 3.5 3.125V6.78125C3.5 7.20312 3.21875 7.8125 2.9375 8.09375L0.828125 10.2031C0.640625 10.3906 0.453125 10.7656 0.453125 11C0.453125 11.2812 0.640625 11.6562 0.828125 11.7969L2.9375 13.9531C3.21875 14.2344 3.45312 14.8438 3.5 15.2656V18.875C3.5 20.3281 4.67188 21.5 6.125 21.5H10.25C10.625 21.5 11 21.1719 11 20.75V20C11 19.625 10.625 19.25 10.25 19.25H6.125C5.89062 19.25 5.75 19.1094 5.75 18.875V15.2656C5.70312 14.3281 5.1875 13.0156 4.53125 12.3594L3.17188 11L4.53125 9.6875C5.1875 9.03125 5.70312 7.71875 5.75 6.78125V3.125C5.75 2.9375 5.89062 2.75 6.125 2.75H10.25C10.625 2.75 11 2.42188 11 2V1.25C11 0.875 10.625 0.5 10.25 0.5ZM27.1719 10.2031L25.0156 8.09375C24.7344 7.8125 24.5 7.20312 24.5 6.78125V3.125C24.5 1.71875 23.2812 0.5 21.875 0.5H17.75C17.3281 0.5 17 0.875 17 1.25V2C17 2.42188 17.3281 2.75 17.75 2.75H21.875C22.0625 2.75 22.25 2.9375 22.25 3.125V6.78125C22.25 7.71875 22.7656 9.03125 23.4219 9.6875L24.7812 11L23.4219 12.3594C22.7656 13.0156 22.25 14.3281 22.25 15.2656V18.875C22.25 19.1094 22.0625 19.25 21.875 19.25H17.75C17.3281 19.25 17 19.625 17 20V20.75C17 21.1719 17.3281 21.5 17.75 21.5H21.875C23.2812 21.5 24.5 20.3281 24.5 18.875V15.2656C24.5 14.8438 24.7344 14.2344 25.0156 13.9531L27.1719 11.7969C27.3125 11.6562 27.5 11.2812 27.5 11C27.5 10.7656 27.3125 10.3906 27.1719 10.2031Z" fill="#805AD5"/>
</svg>
