<svg width="28" height="22" viewBox="0 0 28 22" fill="none" xmlns="http://www.w3.org/2000/svg">
<path d="M10.6472 0.805664H6.52216C5.06903 0.805664 3.89716 2.02441 3.89716 3.43066V7.08691C3.89716 7.50879 3.61591 8.11816 3.33466 8.39941L1.22528 10.5088C1.03778 10.6963 0.850281 11.0713 0.850281 11.3057C0.850281 11.5869 1.03778 11.9619 1.22528 12.1025L3.33466 14.2588C3.61591 14.54 3.85028 15.1494 3.89716 15.5713V19.1807C3.89716 20.6338 5.06903 21.8057 6.52216 21.8057H10.6472C11.0222 21.8057 11.3972 21.4775 11.3972 21.0557V20.3057C11.3972 19.9307 11.0222 19.5557 10.6472 19.5557H6.52216C6.28778 19.5557 6.14716 19.415 6.14716 19.1807V15.5713C6.10028 14.6338 5.58466 13.3213 4.92841 12.665L3.56903 11.3057L4.92841 9.99316C5.58466 9.33691 6.10028 8.02441 6.14716 7.08691V3.43066C6.14716 3.24316 6.28778 3.05566 6.52216 3.05566H10.6472C11.0222 3.05566 11.3972 2.72754 11.3972 2.30566V1.55566C11.3972 1.18066 11.0222 0.805664 10.6472 0.805664ZM27.569 10.5088L25.4128 8.39941C25.1315 8.11816 24.8972 7.50879 24.8972 7.08691V3.43066C24.8972 2.02441 23.6784 0.805664 22.2722 0.805664H18.1472C17.7253 0.805664 17.3972 1.18066 17.3972 1.55566V2.30566C17.3972 2.72754 17.7253 3.05566 18.1472 3.05566H22.2722C22.4597 3.05566 22.6472 3.24316 22.6472 3.43066V7.08691C22.6472 8.02441 23.1628 9.33691 23.819 9.99316L25.1784 11.3057L23.819 12.665C23.1628 13.3213 22.6472 14.6338 22.6472 15.5713V19.1807C22.6472 19.415 22.4597 19.5557 22.2722 19.5557H18.1472C17.7253 19.5557 17.3972 19.9307 17.3972 20.3057V21.0557C17.3972 21.4775 17.7253 21.8057 18.1472 21.8057H22.2722C23.6784 21.8057 24.8972 20.6338 24.8972 19.1807V15.5713C24.8972 15.1494 25.1315 14.54 25.4128 14.2588L27.569 12.1025C27.7097 11.9619 27.8972 11.5869 27.8972 11.3057C27.8972 11.0713 27.7097 10.6963 27.569 10.5088Z" fill="#B794F4"/>
</svg>
