<svg width="42" height="37" viewBox="0 0 42 37" fill="none" xmlns="http://www.w3.org/2000/svg">
<path d="M15.375 0.5C13.2656 0.5 11.5078 1.97656 11.0156 3.94531C10.9453 3.94531 10.875 3.875 10.875 3.875C8.34375 3.875 6.375 5.91406 6.375 8.375C6.375 8.72656 6.375 9.07812 6.44531 9.35938C4.40625 10.2031 3 12.2422 3 14.5625C3 15.4766 3.21094 16.3203 3.5625 17.0234C1.875 18.0078 0.75 19.8359 0.75 21.875C0.75 24.2656 2.15625 26.2344 4.19531 27.0781C4.125 27.4297 4.125 27.7812 4.125 28.0625C4.125 30.875 6.375 33.125 9.1875 33.125C9.46875 33.125 9.75 33.125 10.0312 33.0547C10.6641 35.0938 12.5625 36.5 14.8125 36.5C17.5547 36.5 19.875 34.25 19.875 31.4375V5C19.875 2.53906 17.8359 0.5 15.375 0.5ZM41.25 21.875C41.25 19.8359 40.0547 18.0078 38.3672 17.0234C38.7188 16.3203 39 15.4766 39 14.5625C39 12.2422 37.5234 10.2031 35.4844 9.35938C35.5547 9.07812 35.625 8.72656 35.625 8.375C35.625 5.91406 33.5859 3.875 31.125 3.875C31.0547 3.875 30.9844 3.94531 30.9141 3.94531C30.4219 1.97656 28.6641 0.5 26.625 0.5C24.0938 0.5 22.125 2.53906 22.125 5V31.4375C22.125 34.25 24.375 36.5 27.1875 36.5C29.3672 36.5 31.2656 35.0938 31.9688 33.0547C32.1797 33.125 32.4609 33.125 32.8125 33.125C35.5547 33.125 37.875 30.875 37.875 28.0625C37.875 27.7812 37.8047 27.4297 37.7344 27.0781C39.7734 26.2344 41.25 24.2656 41.25 21.875Z" fill="#805AD5"/>
</svg>
