<svg width="24" height="22" viewBox="0 0 24 22" fill="none" xmlns="http://www.w3.org/2000/svg">
<path d="M21.75 5H18V2.75C18 1.53125 16.9688 0.5 15.75 0.5H8.25C6.98438 0.5 6 1.53125 6 2.75V5H2.25C0.984375 5 0 6.03125 0 7.25V19.25C0 20.5156 0.984375 21.5 2.25 21.5H21.75C22.9688 21.5 24 20.5156 24 19.25V7.25C24 6.03125 22.9688 5 21.75 5ZM8.25 2.75H15.75V5H8.25V2.75ZM2.53125 7.25H21.4688C21.6094 7.25 21.75 7.39062 21.75 7.53125V11H2.25V7.53125C2.25 7.39062 2.34375 7.25 2.53125 7.25ZM21.4688 19.25H2.53125C2.34375 19.25 2.25 19.1562 2.25 18.9688V13.25H9V14.375C9 15.0312 9.46875 15.5 10.125 15.5H13.875C14.4844 15.5 15 15.0312 15 14.375V13.25H21.75V18.9688C21.75 19.1562 21.6094 19.25 21.4688 19.25Z" fill="#805AD5"/>
</svg>
