<svg width="25" height="22" viewBox="0 0 25 22" fill="none" xmlns="http://www.w3.org/2000/svg">
<path d="M22.1472 5.30566H18.3972V3.05566C18.3972 1.83691 17.3659 0.805664 16.1472 0.805664H8.64716C7.38153 0.805664 6.39716 1.83691 6.39716 3.05566V5.30566H2.64716C1.38153 5.30566 0.397156 6.33691 0.397156 7.55566V19.5557C0.397156 20.8213 1.38153 21.8057 2.64716 21.8057H22.1472C23.3659 21.8057 24.3972 20.8213 24.3972 19.5557V7.55566C24.3972 6.33691 23.3659 5.30566 22.1472 5.30566ZM8.64716 3.05566H16.1472V5.30566H8.64716V3.05566ZM2.92841 7.55566H21.8659C22.0065 7.55566 22.1472 7.69629 22.1472 7.83691V11.3057H2.64716V7.83691C2.64716 7.69629 2.74091 7.55566 2.92841 7.55566ZM21.8659 19.5557H2.92841C2.74091 19.5557 2.64716 19.4619 2.64716 19.2744V13.5557H9.39716V14.6807C9.39716 15.3369 9.86591 15.8057 10.5222 15.8057H14.2722C14.8815 15.8057 15.3972 15.3369 15.3972 14.6807V13.5557H22.1472V19.2744C22.1472 19.4619 22.0065 19.5557 21.8659 19.5557Z" fill="#A999F8"/>
</svg>
