<svg width="46" height="37" viewBox="0 0 46 37" fill="none" xmlns="http://www.w3.org/2000/svg">
<path d="M41 14C43.4609 14 45.5 12.0312 45.5 9.5C45.5 7.03906 43.4609 5 41 5C38.4688 5 36.5 7.03906 36.5 9.5C36.5 12.0312 38.4688 14 41 14ZM5 17.375C2.46875 17.375 0.5 19.4141 0.5 21.875C0.5 24.4062 2.46875 26.375 5 26.375C7.46094 26.375 9.5 24.4062 9.5 21.875C9.5 19.4141 7.46094 17.375 5 17.375ZM36.5703 14.7734L35.2344 13.0156L31.8594 15.5469L33.1953 17.3047L36.5703 14.7734ZM41 27.5C39.9453 27.5 39.0312 27.8516 38.2578 28.4141L31.5078 24.4062C31.7891 23.6328 32 22.7891 32 21.875C32 17.5156 28.4141 14 24.125 14C23.4922 14 22.9297 14.0703 22.3672 14.2109L19.4844 8.09375C20.2578 7.25 20.75 6.19531 20.75 5C20.75 2.53906 18.7109 0.5 16.25 0.5C13.7188 0.5 11.75 2.53906 11.75 5C11.75 7.53125 13.7188 9.5 16.25 9.5C16.3203 9.5 16.3906 9.5 16.4609 9.5L19.3438 15.6875C17.4453 17.0938 16.25 19.3438 16.25 21.875C16.25 26.2344 19.7656 29.75 24.125 29.75C26.375 29.75 28.3438 28.8359 29.8203 27.2891L36.5703 31.3672C36.5 31.5781 36.5 31.7891 36.5 32C36.5 34.5312 38.4688 36.5 41 36.5C43.4609 36.5 45.5 34.5312 45.5 32C45.5 29.5391 43.4609 27.5 41 27.5ZM24.125 25.25C22.2266 25.25 20.75 23.7734 20.75 21.875C20.75 20.0469 22.2266 18.5 24.125 18.5C25.9531 18.5 27.5 20.0469 27.5 21.875C27.5 23.7734 25.9531 25.25 24.125 25.25ZM11.1875 23H14.5625V20.75H11.1875V23Z" fill="#805AD5"/>
</svg>
