<svg width="36" height="37" viewBox="0 0 36 37" fill="none" xmlns="http://www.w3.org/2000/svg">
<path d="M32.1328 24.7578C30.3047 26.1641 28.4062 27.3594 26.2969 28.2031L30.0938 34.8125L33.8906 36.4297C34.5938 36.7109 35.3672 36.2891 35.4375 35.5156L35.9297 31.4375L32.1328 24.7578ZM35.0859 18.0781C35.4375 17.5859 35.2266 16.8125 34.6641 16.5312L32.6953 15.4062C32.1328 15.125 31.5 15.3359 31.2188 15.8281C28.3359 20.3281 23.3438 23 18 23C16.3125 23 14.625 22.7188 13.0781 22.2266L17.7891 14C17.8594 14 17.9297 14 17.9297 14C18 14 18.0703 14 18.1406 14L21.7266 20.2578C23.9062 19.625 25.875 18.4297 27.4922 16.8125L23.8359 10.4844C24.3984 9.57031 24.75 8.44531 24.75 7.25C24.75 3.52344 21.7266 0.5 18 0.5C14.2031 0.5 11.25 3.52344 11.25 7.25C11.25 8.44531 11.5312 9.57031 12.0938 10.4844L7.24219 18.7812C6.39844 18.0078 5.55469 17.0938 4.92188 16.0391C4.57031 15.5469 3.9375 15.4062 3.375 15.6875L1.40625 16.8125C0.914062 17.1641 0.703125 17.8672 1.05469 18.4297C2.10938 20.0469 3.44531 21.5234 4.99219 22.7891L0 31.4375L0.492188 35.5156C0.5625 36.2891 1.33594 36.7109 2.03906 36.4297L5.83594 34.8125L10.7578 26.2344C13.0781 27.0781 15.4688 27.5 18 27.5C24.9609 27.5 31.3594 23.9141 35.0859 18.0781ZM18 5C19.1953 5 20.25 6.05469 20.25 7.25C20.25 8.51562 19.1953 9.5 18 9.5C16.7344 9.5 15.75 8.51562 15.75 7.25C15.75 6.05469 16.7344 5 18 5Z" fill="#805AD5"/>
</svg>
