<svg width="48" height="48" viewBox="0 0 48 48" fill="none" xmlns="http://www.w3.org/2000/svg">
<path d="M43.6939 15.7504C44.4556 14.5517 44.9032 13.1348 44.9032 11.6129C44.9032 7.34388 41.4303 3.87097 37.1613 3.87097C36.9284 3.87097 36.6922 3.88344 36.4476 3.90726C35.2878 1.54763 32.8484 0 30.1935 0C26.3513 0 23.2258 3.12626 23.2258 6.96774V10.8387H21.6774V7.74194H20.129V10.8387H17.0323V7.74194H15.4839V10.8387H12.3871V7.74194H10.8387V10.8387H7.74194V7.74194H6.19355V10.8387H5.87298L3.09677 13.6149V13.9355H0V15.4839H3.09677V18.5806H0V20.129H3.09677V23.2258H0V24.7742H3.09677V27.871H0V29.4194H3.09677V32.5161H0V34.0645H3.09677V37.1613H6.19355V40.2581H7.74194V37.1613H10.8387V40.2581H12.3871V37.1613H15.4839V40.2581H17.0323V37.1613H20.129V40.2581H21.6774V37.1613H23.2258V41.0323C23.2258 44.8745 26.3513 48 30.1935 48C32.9868 48 35.3936 46.3446 36.5047 43.9665L36.5421 43.9585C40.4894 43.1568 43.3548 39.6472 43.3548 35.6129C43.3548 34.6376 43.1893 33.6827 42.86 32.7671C46.0055 30.9957 48 27.6302 48 24C48 20.7074 46.3681 17.6224 43.6939 15.7504ZM28.9408 21.7818C28.9842 21.8785 29.0221 21.9764 29.061 22.0755L29.1918 22.4168L30.9677 23.01V24.9908L29.1903 25.5832L29.0602 25.926C29.0221 26.0262 28.9827 26.123 28.9408 26.219L28.7907 26.5539L29.6276 28.2278L28.2271 29.6284L26.5532 28.7915L26.2182 28.9415C26.1222 28.9842 26.0255 29.0228 25.9253 29.061L25.5824 29.191L24.99 30.9677H23.0092L22.4168 29.1903L22.074 29.0602C21.9738 29.0221 21.877 28.9827 21.781 28.9408L21.4461 28.7907L19.7722 29.6276L18.3716 28.2271L19.2085 26.5532L19.0585 26.2182C19.0158 26.1222 18.9772 26.0255 18.939 25.9253L18.809 25.5824L17.0323 24.99V23.0092L18.8082 22.4168L18.939 22.0755C18.9779 21.9764 19.0165 21.8778 19.0592 21.7818L19.2093 21.4468L18.3724 19.7729L19.7729 18.3724L21.4468 19.2093L21.7818 19.0592C21.877 19.0165 21.9738 18.9779 22.0721 18.9405L22.4168 18.8105L23.01 17.0323H24.9908L25.5839 18.8112L25.9287 18.9413C26.027 18.9787 26.1237 19.0173 26.219 19.06L26.5539 19.2101L28.2278 18.3731L29.6284 19.7737L28.7915 21.4476L28.9408 21.7818ZM4.64516 35.6129V14.256L6.51411 12.3871H23.2258V15.4839H21.8933L21.2601 17.3853L19.4679 16.4887L16.4887 19.4679L17.3846 21.2593L15.4839 21.8933V26.106L17.3853 26.7392L16.4887 28.5314L19.4679 31.5106L21.2601 30.6139L21.8933 32.5161H23.2258V35.6129H4.64516ZM41.5479 31.7026L40.8542 32.0285L41.1733 32.7252C41.5936 33.6434 41.8064 34.6149 41.8064 35.6129C41.8064 38.6239 39.8532 41.2715 37.0528 42.2136C37.1193 41.8288 37.1613 41.4356 37.1613 41.0323C37.1613 39.8075 36.8385 38.6027 36.2283 37.5476L34.889 38.3233C35.3627 39.1433 35.6129 40.08 35.6129 41.0323C35.6129 44.0198 33.1811 46.4516 30.1935 46.4516C27.206 46.4516 24.7742 44.0198 24.7742 41.0323V32.5161H26.1067L26.7399 30.6147L28.5321 31.5113L31.5113 28.5321L30.6147 26.7399L32.5161 26.1067V21.894L30.6154 21.2601L31.5113 19.4686L28.5321 16.4894L26.7399 17.3861L26.1067 15.4839H24.7742V6.96774C24.7742 3.97946 27.206 1.54839 30.1935 1.54839C32.4186 1.54839 34.4509 2.94821 35.2496 5.0315L35.4776 5.62613L36.1043 5.51764C36.4846 5.45111 36.8298 5.41935 37.1613 5.41935C40.5764 5.41935 43.3548 8.19783 43.3548 11.6129C43.3548 15.028 40.5764 17.8065 37.1613 17.8065V19.3548C39.3459 19.3548 41.318 18.4412 42.7269 16.9812C45.0325 18.5606 46.4516 21.1849 46.4516 24C46.4516 27.2786 44.5271 30.3028 41.5479 31.7026ZM30.1935 3.09677V4.64516C28.9132 4.64516 27.871 5.68737 27.871 6.96774H26.3226C26.3226 4.83342 28.0592 3.09677 30.1935 3.09677ZM37.1613 8.51613V6.96774C39.7232 6.96774 41.8064 9.05103 41.8064 11.6129H40.2581C40.2581 9.90499 38.8692 8.51613 37.1613 8.51613ZM39.5776 22.4902C40.3083 23.2213 40.7117 24.1935 40.7117 25.2278C40.7117 26.2621 40.3083 27.2348 39.5776 27.9647C38.8477 28.6954 37.875 29.0988 36.8407 29.0988C35.8064 29.0988 34.8342 28.6954 34.1038 27.9647L35.1986 26.87C36.076 27.747 37.6058 27.747 38.4829 26.87C38.921 26.4318 39.1633 25.8489 39.1633 25.2278C39.1633 24.6079 38.9217 24.0238 38.4829 23.5849L39.5776 22.4902ZM30.1935 43.3548V44.9032C28.0592 44.9032 26.3226 43.1666 26.3226 41.0323H27.871C27.871 42.3126 28.9132 43.3548 30.1935 43.3548ZM34.8387 12.3871C34.8387 14.5214 33.1021 16.2581 30.9677 16.2581V14.7097C32.2481 14.7097 33.2903 13.6675 33.2903 12.3871C33.2903 11.1067 32.2481 10.0645 30.9677 10.0645V8.51613C33.1021 8.51613 34.8387 10.2528 34.8387 12.3871ZM24 20.129C21.8657 20.129 20.129 21.8657 20.129 24C20.129 26.1343 21.8657 27.871 24 27.871C26.1343 27.871 27.871 26.1343 27.871 24C27.871 21.8657 26.1343 20.129 24 20.129ZM24 26.3226C22.7196 26.3226 21.6774 25.2804 21.6774 24C21.6774 22.7196 22.7196 21.6774 24 21.6774C25.2804 21.6774 26.3226 22.7196 26.3226 24C26.3226 25.2804 25.2804 26.3226 24 26.3226ZM20.129 15.4839H12.3871V13.9355H20.129V15.4839ZM7.74194 32.5161H20.129V34.0645H6.19355V20.129H7.74194V32.5161ZM8.51613 18.5806C9.7965 18.5806 10.8387 17.5384 10.8387 16.2581C10.8387 14.9777 9.7965 13.9355 8.51613 13.9355C7.23576 13.9355 6.19355 14.9777 6.19355 16.2581C6.19355 17.5384 7.23576 18.5806 8.51613 18.5806ZM8.51613 15.4839C8.9433 15.4839 9.29032 15.8317 9.29032 16.2581C9.29032 16.6845 8.9433 17.0323 8.51613 17.0323C8.08896 17.0323 7.74194 16.6845 7.74194 16.2581C7.74194 15.8317 8.08896 15.4839 8.51613 15.4839Z" fill="#7A46EB"/>
</svg>
