<svg width="21" height="16" viewBox="0 0 21 16" fill="none" xmlns="http://www.w3.org/2000/svg">
<path d="M0.0909092 16V11.9091C0.0909092 10.6667 0.310606 9.34848 0.75 7.95454C1.20455 6.54545 1.85606 5.18939 2.70455 3.88636C3.56818 2.56818 4.60606 1.42424 5.81818 0.454544L8.72727 2.81818C7.77273 4.18182 6.93939 5.60606 6.22727 7.09091C5.5303 8.5606 5.18182 10.1364 5.18182 11.8182V16H0.0909092ZM11.7273 16V11.9091C11.7273 10.6667 11.947 9.34848 12.3864 7.95454C12.8409 6.54545 13.4924 5.18939 14.3409 3.88636C15.2045 2.56818 16.2424 1.42424 17.4545 0.454544L20.3636 2.81818C19.4091 4.18182 18.5758 5.60606 17.8636 7.09091C17.1667 8.5606 16.8182 10.1364 16.8182 11.8182V16H11.7273Z" fill="white"/>
</svg>
